<svg width="1022" height="1024" viewBox="0 0 1022 1024" fill="none" xmlns="http://www.w3.org/2000/svg">
<path d="M295.538 322.922C294.659 286.752 303.989 258.135 332.13 233.956C387.657 186.244 466.839 197.91 513.63 251.051C514.917 249.564 516.258 248.127 517.653 246.742C549.189 215.253 577.647 204.496 621.126 204.446C668.394 207.625 707.445 236.003 724.131 279.386C724.941 281.484 725.724 284.624 726.759 286.483L728.028 291.757C730.143 312.979 728.235 326.946 713.736 344.223C689.517 373.089 645.462 392.677 611.379 408.097C611.226 397.657 611.19 387.216 611.289 376.776C611.379 370.025 611.685 363.188 611.298 356.454C610.749 347.061 603.837 346.411 596.232 346.719C579.465 347.398 562.689 347.238 545.922 347.225C545.895 340.49 545.733 333.068 545.94 326.405C545.985 314.86 546.525 298.513 545.184 287.42C533.835 287.29 486.331 285.988 479.557 288.811C476.54 294.17 477.825 321.991 477.864 329.756L477.639 347.276C464.335 346.984 426.5 345.747 413.971 348.918C409.139 350.141 409.734 403.731 413.128 410.151C418.033 414.044 468.102 412.276 477.824 412.195L477.903 451.74C445.565 458.794 411.203 465.703 378.053 467.301C376.047 465.633 374.071 463.933 372.123 462.2C334.048 428.433 298.717 374.99 295.538 322.922Z" fill="#3B82F6"/>
<g filter="url(#filter0_d_1_32)">
<path d="M285.502 361.716C266.98 381.335 230.064 404.156 234.576 436.748C236.668 451.863 257.385 462.595 270.8 466.254C345.144 486.533 426.829 473.933 500.895 457.882C507.447 460.516 566.677 441.03 577.315 437.544C567.334 443.226 554.5 449.358 560.575 463.714L561.312 464.168C562.365 464.826 561.952 464.547 562.924 465.317C548.506 472.17 511.389 479.377 494.64 485.077C489.51 486.824 478.576 488.613 474.565 491.404L474.635 492.838C477.316 494.331 477.742 494.502 480.751 495.095L475.759 494.715C478.356 496.477 480.559 496.05 483.803 496.029C475.422 498.817 454.87 502.824 445.397 504.589C383.664 515.895 318.588 524.02 256.684 509.866C224.55 502.518 193.251 480.684 204.714 443.6C215.201 409.676 255.792 378.588 285.502 361.716Z" fill="white"/>
</g>
<path d="M687.349 436.938L687.358 438.085C647.083 493.39 578.827 556.659 516.907 586.476C506.08 581.846 472.217 556.654 462.068 549.11C449.468 539.524 437.435 529.214 426.029 518.233C432.939 516.552 444.83 515.153 452.352 513.815C467.532 511.019 482.651 507.901 497.701 504.464C554.158 491.652 636.427 463.215 687.349 436.938Z" fill="#3B82F6"/>
<path d="M749.178 290.623C767.268 286.227 788.436 282.581 805.383 292.726C812.133 296.764 816.624 302.845 818.532 310.472C821.079 320.658 816.372 332.216 811.044 340.752C766.827 411.625 571.626 476.511 491.256 494.388C488.772 494.94 486.277 495.437 483.803 496.029C480.559 496.05 478.356 496.477 475.759 494.715L480.751 495.095C477.742 494.502 477.316 494.331 474.635 492.838L474.565 491.404C478.576 488.613 489.509 486.824 494.64 485.077C511.389 479.377 548.505 472.17 562.923 465.317C561.951 464.547 562.365 464.826 561.312 464.168L560.574 463.714C554.499 449.358 567.333 443.226 577.314 437.544C566.676 441.03 507.447 460.516 500.895 457.882C583.11 437.31 666.054 407.839 735.741 358.466C747.846 349.893 799.857 311.612 770.769 295.414C765.657 292.571 755.307 291.357 749.178 290.623Z" fill="white"/>
<path d="M626.292 648.504C636.939 648.482 646.767 648.509 657.432 649.026C659.457 689.777 657.207 741.321 657.63 782.995L631.44 783.147L631.395 714.726L631.602 688.734C628.101 696.211 592.416 760.401 588.195 763.78C586.566 764.192 585.216 764.553 583.551 764.078C579.474 762.913 544.365 696.91 539.145 687.687C540.036 718.016 539.262 752.339 539.262 782.984L512.712 783.109C513.162 744.901 512.343 706.575 512.667 668.355C512.721 661.767 512.595 655.071 513.135 648.513C524.079 648.385 535.032 648.482 545.976 648.801C559.71 672.889 573.075 697.189 586.062 721.692C589.095 714.119 597.618 699.682 601.83 692.269C610.128 677.762 618.282 663.173 626.292 648.504Z" fill="#10B981"/>
<path d="M858.501 648.769L881.1 648.951C880.164 691.276 880.551 740.253 881.235 782.674C873.477 782.916 863.46 785.045 857.421 782.08C855.342 778.675 856.071 778.053 855.981 773.432C838.674 784.881 824.985 787.08 805.428 779.002C804.465 778.559 803.988 778.329 803.07 777.802C791.955 771.361 783.9 760.711 780.732 748.259C768.816 702.912 813.888 667.579 855.171 692.558C855.072 685.508 854.019 654.109 856.098 649.259L858.501 648.769ZM834.354 761.878C843.939 759.748 847.593 757.829 854.766 750.81C855.558 731.984 860.085 706.164 832.5 705.915C831.042 705.911 829.584 705.957 828.126 706.053C811.098 710.07 801.972 724.817 806.337 741.851C808.092 748.795 812.628 754.707 818.883 758.194C823.545 760.838 829.053 761.653 834.354 761.878Z" fill="#10B981"/>
<path d="M391.429 684.643C394.77 684.508 398.113 684.434 401.455 684.42C420.724 684.477 437.201 693.188 444.906 711.168C449.369 721.578 449.037 730.965 448.965 741.941C424.499 742.284 399.569 742.052 375.069 742.062C384.682 769.324 409.383 766.186 430.629 754.428C431.918 753.714 432.88 754.717 434.108 755.381L447.178 768.511C437.904 776.024 429.069 781.691 416.938 783.406C399.41 785.883 381.78 784.222 367.236 773.415C356.466 765.458 349.398 753.462 347.653 740.183C343.832 711.019 362.388 687.962 391.429 684.643ZM375.018 723.967C386.451 724.077 397.886 724.116 409.32 724.086L425.265 723.996C418.489 706.013 410.262 703.789 391.833 705.226C381.168 710.087 379.26 712.913 375.018 723.967Z" fill="#3B82F6"/>
<path d="M711.252 684.574C715.221 684.464 719.19 684.413 723.159 684.421C758.943 684.735 770.337 710.426 769.959 741.993L696.717 742.166C705.051 769.892 732.042 765.593 752.364 754.123L754.137 754.688C759.24 759.569 763.272 763.369 767.862 768.788C746.991 787.174 713.493 790.413 690.381 774.658C679.572 767.22 672.165 755.798 669.771 742.899C664.272 713.38 682.335 690.013 711.252 684.574ZM696.267 724.011C707.607 724.05 719.064 724.183 730.395 724.098L746.136 724.061C739.143 706.693 733.249 703.494 714.25 705.19C703.027 708.803 699.921 712.815 696.267 724.011Z" fill="#10B981"/>
<path d="M136.16 648.671L163.325 648.518C162.802 685.297 163.296 723.233 163.313 760.105L225.961 760.034C225.668 767.397 225.947 775.629 226.052 783.082L136.061 783.139L136.16 648.671Z" fill="#3B82F6"/>
<path d="M319.931 646.854C326.774 646.094 343.347 646.43 347.911 651.914C348.156 655.835 344.916 665.323 343.661 669.592C325.251 665.409 320.034 665.475 318.491 685.662C327.273 685.372 336.784 685.581 345.628 685.619C344.967 691.78 345.205 699.638 345.215 705.954L318.832 706.064L318.882 766.707L318.881 783.03L291.923 783.063L292.014 705.999L275.919 706.004C275.634 699.576 275.739 692.08 275.691 685.559C280.691 685.375 286.799 685.597 291.886 685.644C291.456 663.336 295.858 649.708 319.931 646.854Z" fill="#3B82F6"/>
<path d="M747.63 215.045C757.44 202.714 777.546 197.547 792.594 195.829C802.386 194.758 812.25 194.51 822.087 195.086C821.997 217.746 816.778 238.197 800.623 255.401C799.965 256.099 798.498 257.478 797.76 257.955C797.013 258.733 796.24 259.497 795.457 260.243C781.588 273.43 764.676 275.687 746.505 275.134C752.976 260.019 759.168 251.141 769.383 238.437C777.825 229.578 786.763 221.208 796.15 213.368C785.332 217.817 770.328 228.175 761.463 235.824C757.215 231.575 745.48 222.182 748.108 216.166L747.63 215.045Z" fill="#10B981"/>
<path d="M237.854 685.523L264.168 685.475L264.119 783.291C255.672 782.867 246.466 783.107 237.948 783.176L237.854 685.523Z" fill="#3B82F6"/>
<path d="M245.128 646.801C270.733 643.85 275.346 667.927 256.66 675.397C233.76 678.743 225.408 655.912 245.128 646.801Z" fill="#3B82F6"/>
<path d="M734.445 268.649C731.124 251.811 730.728 225.422 747.63 215.045L748.107 216.166C745.479 222.182 757.215 231.575 761.463 235.824C747.504 249.055 745.173 252.314 734.445 268.649Z" fill="#10B981"/>
<path d="M546.454 412.2L596.953 412.367C591.526 414.81 585.703 417.156 580.195 419.574C568.81 423.97 557.263 428.779 545.68 432.549C545.644 426.085 546.157 418.722 546.454 412.2Z" fill="#2563EB"/>
<defs>
<filter id="filter0_d_1_32" x="198.297" y="361.716" width="383.017" height="163.682" filterUnits="userSpaceOnUse" color-interpolation-filters="sRGB">
<feFlood flood-opacity="0" result="BackgroundImageFix"/>
<feColorMatrix in="SourceAlpha" type="matrix" values="0 0 0 0 0 0 0 0 0 0 0 0 0 0 0 0 0 0 127 0" result="hardAlpha"/>
<feOffset dy="4"/>
<feGaussianBlur stdDeviation="2"/>
<feComposite in2="hardAlpha" operator="out"/>
<feColorMatrix type="matrix" values="0 0 0 0 0 0 0 0 0 0 0 0 0 0 0 0 0 0 0.25 0"/>
<feBlend mode="normal" in2="BackgroundImageFix" result="effect1_dropShadow_1_32"/>
<feBlend mode="normal" in="SourceGraphic" in2="effect1_dropShadow_1_32" result="shape"/>
</filter>
</defs>
</svg>
